<?xml version="1.0" encoding="UTF-8" ?>
<!DOCTYPE svg PUBLIC "-//W3C//DTD SVG 1.1//EN" "http://www.w3.org/Graphics/SVG/1.1/DTD/svg11.dtd">
<svg width="45pt" height="54pt" viewBox="0 0 45 54" version="1.1" xmlns="http://www.w3.org/2000/svg">
<g id="#00c392ff">
<path fill="#00c392" opacity="1.00" d=" M 20.61 0.00 L 24.23 0.00 C 30.90 0.71 37.34 4.52 40.42 10.59 C 42.56 14.37 42.46 18.82 42.58 23.03 C 43.41 24.01 44.23 25.01 45.00 26.05 L 45.00 38.47 C 44.17 40.80 41.81 41.06 39.68 41.32 C 38.04 43.22 36.98 45.50 35.56 47.56 C 33.45 50.35 29.76 50.89 26.56 51.54 C 26.12 52.36 25.67 53.18 25.23 54.00 L 18.42 54.00 C 17.50 52.08 16.66 49.23 18.24 47.50 C 21.16 46.49 25.36 46.24 26.99 49.50 C 30.68 48.94 34.09 47.15 35.88 43.75 C 35.37 43.29 34.36 42.37 33.86 41.90 C 33.74 36.25 33.72 30.59 33.76 24.94 C 33.93 23.74 33.55 21.52 35.30 21.37 C 37.44 20.56 39.18 22.00 40.46 23.54 C 40.73 17.60 39.90 11.01 35.09 6.92 C 27.12 -0.88 12.28 0.93 6.74 10.71 C 4.29 14.56 4.42 19.28 4.44 23.67 C 5.17 22.83 5.90 21.98 6.62 21.13 C 8.11 21.54 10.90 20.72 11.06 22.95 C 11.41 28.96 11.30 35.02 11.12 41.03 C 11.21 43.29 8.27 42.70 6.86 43.26 C 6.30 42.62 5.74 41.98 5.19 41.34 C 3.25 41.03 1.19 40.66 0.00 38.91 L 0.00 25.88 C 0.77 24.89 1.59 23.95 2.46 23.06 C 2.49 18.85 2.40 14.40 4.53 10.62 C 7.58 4.56 13.98 0.77 20.61 0.00 M 7.47 22.95 C 7.35 28.96 7.44 34.98 7.41 40.99 C 7.83 40.99 8.69 41.00 9.12 41.00 C 8.97 35.18 9.42 29.32 8.91 23.52 C 8.55 23.38 7.83 23.09 7.47 22.95 M 35.77 23.47 C 35.88 29.31 35.80 35.16 35.83 41.00 C 36.27 41.00 37.15 41.00 37.59 40.99 C 37.58 35.05 37.60 29.10 37.58 23.15 C 37.12 23.23 36.22 23.39 35.77 23.47 M 2.04 25.78 C 2.22 30.07 1.72 34.40 2.30 38.66 C 3.06 38.82 4.58 39.14 5.34 39.29 C 5.38 34.59 5.32 29.89 5.40 25.19 C 4.27 25.38 3.15 25.56 2.04 25.78 M 39.60 25.15 C 39.58 29.89 39.57 34.63 39.61 39.37 C 40.37 39.19 41.90 38.83 42.67 38.65 C 43.21 34.79 42.96 30.86 42.87 26.98 C 43.13 25.08 40.75 25.49 39.60 25.15 M 19.51 49.00 C 19.51 49.74 19.52 51.22 19.52 51.96 C 21.11 51.96 22.70 51.95 24.29 51.95 C 24.30 51.21 24.31 49.74 24.31 49.00 C 22.71 49.00 21.11 49.00 19.51 49.00 Z" />
</g>
</svg>
