<?xml version="1.0" encoding="UTF-8" ?>
<!DOCTYPE svg PUBLIC "-//W3C//DTD SVG 1.1//EN" "http://www.w3.org/Graphics/SVG/1.1/DTD/svg11.dtd">
<svg width="59pt" height="60pt" viewBox="0 0 59 60" version="1.1" xmlns="http://www.w3.org/2000/svg">
<g id="#ff8600ff">
<path fill="#ff8600" opacity="1.00" d=" M 41.25 0.00 L 43.59 0.00 C 48.15 0.99 50.01 7.28 46.22 10.25 C 42.03 14.38 34.66 8.13 37.30 3.26 C 38.01 1.60 39.76 0.82 41.25 0.00 M 41.08 2.20 C 38.65 3.08 37.78 6.55 39.64 8.40 C 41.48 10.63 45.46 9.74 46.20 6.95 C 47.28 4.03 43.92 0.89 41.08 2.20 Z" />
<path fill="#ff8600" opacity="1.00" d=" M 4.10 6.68 C 5.52 5.51 7.27 7.92 5.77 8.94 C 4.35 10.21 2.58 7.68 4.10 6.68 Z" />
<path fill="#ff8600" opacity="1.00" d=" M 20.36 7.66 C 23.15 6.75 26.08 6.39 28.95 5.85 C 31.37 6.89 33.93 7.60 36.34 8.68 C 39.29 11.02 41.82 14.03 42.48 17.85 C 45.80 20.04 49.27 22.13 53.46 21.38 C 53.21 20.19 52.72 17.81 52.47 16.61 C 56.36 19.56 56.80 24.94 58.99 29.04 C 57.33 32.75 56.14 36.69 54.14 40.25 C 51.85 42.87 52.96 37.88 53.38 36.76 C 49.53 36.82 45.67 36.81 41.82 36.77 C 43.53 40.22 45.08 44.05 44.21 47.97 C 43.26 54.25 37.77 59.16 31.56 60.00 L 28.47 60.00 C 22.19 59.24 16.64 54.28 15.68 47.96 C 14.82 44.05 16.36 40.22 18.07 36.78 C 13.34 36.81 8.61 36.80 3.89 36.80 C 3.89 36.32 3.88 35.35 3.88 34.87 C 8.94 34.77 14.00 35.08 19.05 34.77 C 22.11 33.93 24.57 31.42 27.85 31.13 C 32.28 30.30 36.55 32.22 40.01 34.83 C 44.84 34.89 49.68 34.87 54.51 34.85 C 55.31 32.90 56.11 30.96 56.91 29.02 C 56.10 27.07 55.29 25.13 54.49 23.19 C 52.15 23.20 49.82 23.22 47.49 23.26 C 47.07 22.62 46.66 21.98 46.26 21.34 C 45.48 25.50 40.88 23.85 37.92 24.27 C 37.29 22.02 36.65 19.78 36.01 17.54 C 34.27 17.78 32.53 18.01 30.80 18.25 C 32.14 20.17 33.49 22.09 34.84 24.01 C 34.43 25.65 34.03 27.29 33.64 28.93 C 29.82 29.27 26.00 30.20 22.16 29.80 C 20.10 28.98 19.59 25.95 21.41 24.60 C 23.15 23.93 25.02 23.71 26.83 23.33 C 26.14 22.67 25.45 22.01 24.76 21.35 C 18.75 24.38 13.06 28.09 6.88 30.78 C 3.71 31.98 1.32 26.94 4.02 25.08 C 9.51 21.09 15.49 17.82 21.13 14.03 L 22.10 14.31 C 20.78 13.26 18.57 12.76 18.37 10.82 C 18.19 9.48 19.01 8.01 20.36 7.66 M 20.05 10.09 C 20.26 10.47 20.68 11.21 20.88 11.58 C 24.51 11.68 28.18 10.78 30.94 8.32 C 27.28 7.86 23.34 8.38 20.05 10.09 M 5.94 26.02 C 4.00 26.42 4.77 29.91 6.71 28.80 C 14.02 25.18 21.05 21.01 28.28 17.23 C 31.10 15.82 34.37 15.94 37.41 15.38 C 38.06 17.70 38.72 20.01 39.38 22.33 C 41.00 22.29 42.62 22.28 44.23 22.11 C 45.51 19.81 41.88 20.61 40.76 20.13 C 40.35 15.88 38.16 11.18 33.96 9.62 C 23.96 13.79 15.12 20.32 5.94 26.02 M 26.51 20.35 C 28.03 21.87 29.54 23.39 31.05 24.91 C 28.13 25.27 25.17 25.50 22.30 26.23 C 22.30 26.62 22.28 27.39 22.27 27.77 C 25.54 28.27 28.82 27.46 32.07 27.17 C 32.30 26.23 32.53 25.30 32.76 24.37 C 31.49 22.61 30.23 20.84 28.97 19.07 C 28.36 19.39 27.13 20.03 26.51 20.35 M 27.16 33.21 C 22.44 34.32 18.48 38.28 17.62 43.09 C 16.23 49.46 20.65 56.35 27.03 57.70 C 34.39 59.70 42.48 53.60 42.49 45.95 C 43.08 38.03 34.84 31.20 27.16 33.21 Z" />
<path fill="#ff8600" opacity="1.00" d=" M 7.54 8.66 C 7.61 8.20 7.74 7.27 7.80 6.81 C 11.12 7.42 15.91 5.23 18.06 8.46 C 14.56 8.86 11.05 8.76 7.54 8.66 Z" />
<path fill="#ff8600" opacity="1.00" d=" M 2.13 10.50 C 3.56 9.38 5.37 11.78 3.78 12.77 C 2.35 13.93 0.56 11.49 2.13 10.50 Z" />
<path fill="#ff8600" opacity="1.00" d=" M 6.47 10.78 C 9.77 10.48 13.10 10.72 16.42 10.68 L 16.41 12.59 C 12.67 12.61 8.91 12.70 5.18 12.38 C 5.50 11.98 6.14 11.18 6.47 10.78 Z" />
<path fill="#ff8600" opacity="1.00" d=" M 0.00 14.43 C 3.02 12.86 3.00 17.77 0.00 17.25 L 0.00 14.43 Z" />
<path fill="#ff8600" opacity="1.00" d=" M 3.88 14.53 C 7.10 14.53 10.31 14.53 13.53 14.53 L 13.53 16.47 C 10.31 16.47 7.10 16.47 3.88 16.47 L 3.88 14.53 Z" />
<path fill="#ff8600" opacity="1.00" d=" M 22.72 37.69 C 26.79 33.71 33.98 34.01 37.74 38.26 C 39.94 40.41 40.41 43.56 40.80 46.46 C 39.96 46.45 38.29 46.42 37.45 46.41 C 37.77 45.22 38.14 44.04 38.65 42.92 C 38.18 42.62 37.24 42.03 36.77 41.73 C 36.89 38.54 33.20 39.05 31.90 36.71 C 31.44 37.00 30.53 37.58 30.08 37.87 C 27.71 35.51 26.51 39.45 24.02 38.98 C 23.09 41.45 20.40 43.66 22.36 46.42 C 21.54 46.43 19.91 46.45 19.09 46.46 C 19.45 43.28 20.15 39.86 22.72 37.69 Z" />
<path fill="#ff8600" opacity="1.00" d=" M 33.31 43.98 C 33.79 42.87 34.94 43.76 35.74 43.80 C 34.11 46.18 32.41 48.52 30.73 50.87 C 30.34 50.60 29.55 50.07 29.16 49.80 C 30.52 47.85 31.82 45.84 33.31 43.98 Z" />
</g>
<g id="#df7500df">
<path fill="#df7500" opacity="0.87" d=" M 0.00 34.84 C 2.73 33.75 2.56 38.36 0.00 36.70 L 0.00 34.84 Z" />
</g>
<g id="#d87100d8">
<path fill="#d87100" opacity="0.85" d=" M 25.23 53.28 C 26.85 52.75 27.40 53.31 26.88 54.94 C 25.25 55.47 24.70 54.91 25.23 53.28 Z" />
<path fill="#d87100" opacity="0.85" d=" M 29.17 53.23 C 30.79 52.77 31.33 53.35 30.77 54.97 C 29.13 55.44 28.60 54.87 29.17 53.23 Z" />
</g>
<g id="#cb6a00cb">
<path fill="#cb6a00" opacity="0.80" d=" M 33.02 53.28 C 34.64 52.76 35.21 53.31 34.70 54.93 C 33.07 55.46 32.51 54.91 33.02 53.28 Z" />
</g>
</svg>
