<?xml version="1.0" encoding="UTF-8" ?>
<!DOCTYPE svg PUBLIC "-//W3C//DTD SVG 1.1//EN" "http://www.w3.org/Graphics/SVG/1.1/DTD/svg11.dtd">
<svg width="53pt" height="53pt" viewBox="0 0 53 53" version="1.1" xmlns="http://www.w3.org/2000/svg">
<g id="#ffb117ff">
<path fill="#ffb117" opacity="1.00" d=" M 0.00 0.00 L 31.91 0.00 C 36.00 4.09 40.30 8.02 44.13 12.36 C 44.97 16.99 44.23 21.82 44.48 26.53 C 47.32 26.53 50.16 26.53 53.00 26.54 L 53.00 42.73 C 50.16 42.73 47.31 42.73 44.47 42.73 C 44.47 46.16 44.47 49.58 44.47 53.00 L 0.00 53.00 L 0.00 0.00 M 1.70 1.73 C 1.70 18.24 1.70 34.76 1.70 51.27 C 15.39 51.27 29.08 51.27 42.77 51.27 C 42.76 48.43 42.76 45.60 42.77 42.76 C 42.34 42.75 41.49 42.72 41.06 42.70 L 41.07 40.87 C 35.14 42.95 28.67 41.39 22.51 41.86 C 21.77 40.30 21.02 38.76 20.27 37.21 C 19.22 38.11 18.17 39.01 17.11 39.91 C 17.20 43.19 17.06 46.47 17.05 49.75 C 12.51 49.44 7.96 49.66 3.41 49.60 C 3.41 45.04 3.41 40.49 3.41 35.93 C 7.87 36.04 12.34 35.73 16.79 36.06 C 16.97 36.42 17.33 37.16 17.51 37.53 C 18.28 36.78 19.07 36.04 19.87 35.32 C 18.74 32.18 18.83 28.83 19.81 25.67 C 22.78 25.67 25.75 25.65 28.72 25.69 C 27.61 22.15 28.57 18.59 30.20 15.39 C 31.82 15.40 33.44 15.40 35.07 15.40 C 34.28 20.41 36.05 25.91 40.70 28.41 C 41.22 27.88 42.26 26.83 42.77 26.31 C 42.76 22.09 42.76 17.88 42.77 13.67 C 38.77 13.67 34.76 13.66 30.76 13.66 C 30.77 9.69 30.76 5.71 30.76 1.73 C 21.08 1.73 11.39 1.73 1.70 1.73 M 32.47 2.92 C 32.47 5.94 32.47 8.97 32.47 12.00 C 35.50 12.00 38.54 12.00 41.57 12.00 C 38.54 8.97 35.51 5.94 32.47 2.92 M 31.33 17.04 C 29.48 20.26 29.85 23.94 30.98 27.34 C 27.70 27.32 24.42 27.35 21.14 27.33 C 19.97 31.76 21.75 36.23 23.56 40.23 C 29.40 39.92 35.39 40.97 41.07 39.16 C 41.05 36.20 41.07 33.24 41.04 30.28 C 35.71 28.41 32.68 22.55 33.32 17.08 C 32.83 17.07 31.83 17.05 31.33 17.04 M 42.76 28.20 C 42.77 32.47 42.76 36.74 42.77 41.00 C 45.61 41.00 48.46 41.00 51.31 40.98 C 51.29 36.72 51.29 32.46 51.30 28.20 C 48.45 28.20 45.61 28.20 42.76 28.20 M 5.12 37.60 C 5.12 41.02 5.12 44.44 5.12 47.87 C 8.55 47.87 11.98 47.87 15.42 47.86 C 15.40 45.72 15.42 43.58 15.45 41.44 C 13.32 43.02 11.48 45.02 9.12 46.26 C 7.53 46.20 7.09 44.35 6.11 43.41 C 6.42 43.11 7.04 42.50 7.36 42.20 C 7.93 42.95 8.51 43.70 9.09 44.45 C 11.28 42.19 14.68 40.81 15.69 37.64 C 12.17 37.57 8.64 37.60 5.12 37.60 Z" />
<path fill="#ffb117" opacity="1.00" d=" M 3.41 3.40 C 7.89 3.40 12.36 3.42 16.84 3.37 C 16.96 3.78 17.19 4.60 17.31 5.02 C 18.44 4.09 19.52 2.91 21.13 3.12 C 20.37 5.01 18.68 6.18 17.12 7.38 C 17.12 10.61 17.11 13.84 17.12 17.07 C 12.55 17.07 7.98 17.07 3.41 17.06 C 3.41 12.51 3.41 7.96 3.41 3.40 M 5.12 5.14 C 5.11 8.56 5.12 11.98 5.12 15.40 C 8.55 15.40 11.98 15.40 15.41 15.40 C 15.41 13.22 15.41 11.04 15.40 8.86 C 13.28 10.51 11.45 12.67 8.99 13.82 C 7.48 13.42 5.20 10.72 7.38 9.63 C 7.80 10.22 8.63 11.40 9.05 12.00 C 11.36 9.81 14.39 8.22 15.91 5.32 C 12.32 5.02 8.71 5.14 5.12 5.14 Z" />
<path fill="#ffb117" opacity="1.00" d=" M 17.48 21.23 C 18.59 20.07 19.80 18.53 21.28 20.14 C 19.93 21.39 18.17 22.32 17.21 23.93 C 16.94 27.05 17.18 30.20 17.12 33.33 C 12.55 33.33 7.98 33.33 3.41 33.33 C 3.41 28.78 3.41 24.22 3.41 19.67 C 7.87 19.77 12.33 19.47 16.77 19.78 L 17.48 21.23 M 5.12 21.40 C 5.11 24.80 5.11 28.20 5.12 31.60 C 8.55 31.60 11.98 31.60 15.41 31.60 C 15.41 29.43 15.41 27.27 15.41 25.10 C 13.06 26.87 11.14 29.47 8.17 30.22 C 7.46 28.80 5.67 27.35 7.03 25.72 C 7.73 26.54 8.42 27.36 9.11 28.19 C 11.38 26.00 14.48 24.48 15.83 21.49 C 12.26 21.37 8.69 21.38 5.12 21.40 Z" />
</g>
</svg>
