<?xml version="1.0" encoding="UTF-8" ?>
<!DOCTYPE svg PUBLIC "-//W3C//DTD SVG 1.1//EN" "http://www.w3.org/Graphics/SVG/1.1/DTD/svg11.dtd">
<svg width="56pt" height="56pt" viewBox="0 0 56 56" version="1.1" xmlns="http://www.w3.org/2000/svg">
<g id="#00a5feff">
<path fill="#00a5fe" opacity="1.00" d=" M 26.60 0.00 L 29.17 0.00 C 34.84 0.61 39.06 5.38 39.89 10.88 C 44.21 10.98 48.57 10.55 52.86 11.11 C 54.51 11.38 55.19 13.07 56.00 14.30 L 56.00 47.00 C 55.27 48.45 54.38 50.18 52.56 50.39 C 48.90 50.85 45.20 50.53 41.53 50.59 C 41.53 51.50 41.53 53.31 41.53 54.22 C 42.38 54.20 44.07 54.17 44.92 54.16 C 45.02 54.62 45.23 55.54 45.33 56.00 L 10.80 56.00 C 10.81 55.55 10.84 54.64 10.86 54.19 C 11.76 54.19 13.57 54.20 14.47 54.20 C 14.47 53.30 14.47 51.49 14.47 50.59 C 10.81 50.54 7.12 50.85 3.48 50.40 C 1.67 50.21 0.78 48.48 0.00 47.06 L 0.00 14.53 C 0.68 13.16 1.40 11.41 3.12 11.12 C 7.39 10.55 11.73 10.98 16.03 10.87 C 16.89 5.43 20.99 0.71 26.60 0.00 M 20.32 5.39 C 17.19 8.85 18.11 13.81 18.00 18.07 C 18.46 18.07 19.37 18.07 19.83 18.06 C 20.03 14.27 18.96 9.83 21.63 6.65 C 24.49 2.89 30.70 2.62 33.86 6.14 C 36.99 9.29 35.96 14.07 36.12 18.06 C 36.57 18.06 37.49 18.07 37.94 18.07 C 37.86 13.61 38.74 8.30 35.13 4.89 C 31.30 0.62 23.88 0.91 20.32 5.39 M 21.48 10.82 C 25.80 10.89 30.13 10.90 34.46 10.82 C 33.50 8.00 31.25 5.28 27.99 5.43 C 24.72 5.26 22.41 7.97 21.48 10.82 M 3.11 13.00 C 2.85 13.29 2.32 13.86 2.06 14.15 C 1.49 23.85 1.99 33.61 1.82 43.33 C 19.27 43.33 36.73 43.34 54.18 43.33 C 54.15 34.21 54.22 25.10 54.16 15.98 C 54.31 14.61 53.64 12.82 52.02 12.79 C 47.94 12.48 43.85 12.75 39.76 12.67 C 39.76 14.34 39.77 16.00 39.79 17.67 C 40.84 18.52 42.59 19.28 42.32 20.95 C 42.37 26.96 42.42 32.98 42.29 38.98 C 42.50 40.75 40.52 41.67 39.04 41.52 C 31.65 41.55 24.27 41.55 16.88 41.52 C 15.37 41.67 13.45 40.71 13.61 38.95 C 13.44 32.99 13.51 27.02 13.57 21.06 C 13.29 19.31 15.04 18.52 16.15 17.65 C 16.17 15.99 16.18 14.33 16.18 12.67 C 11.83 12.85 7.41 12.25 3.11 13.00 M 21.59 12.67 C 21.59 14.47 21.59 16.27 21.59 18.07 C 25.82 18.07 30.06 18.07 34.29 18.06 C 34.29 16.27 34.29 14.47 34.29 12.67 C 30.06 12.66 25.82 12.66 21.59 12.67 M 15.39 20.01 C 15.34 26.55 15.31 33.09 15.40 39.63 C 23.73 39.87 32.07 39.66 40.41 39.74 C 40.75 33.14 40.61 26.51 40.49 19.90 C 32.12 19.91 23.75 19.71 15.39 20.01 M 1.56 45.17 C 1.83 47.00 2.77 49.11 5.01 48.76 C 20.34 48.83 35.67 48.83 51.00 48.76 C 53.23 49.09 54.20 47.01 54.41 45.16 C 36.80 45.12 19.17 45.10 1.56 45.17 M 16.23 50.61 C 16.23 51.50 16.23 53.30 16.23 54.20 C 24.08 54.20 31.93 54.21 39.78 54.20 C 39.77 52.99 39.76 51.79 39.75 50.59 C 31.91 50.61 24.07 50.59 16.23 50.61 Z" />
<path fill="#00a5fe" opacity="1.00" d=" M 25.17 30.07 C 22.03 27.31 23.55 21.52 28.03 21.66 C 32.35 21.70 33.75 27.32 30.72 30.01 C 30.62 32.65 30.64 35.29 30.65 37.93 C 28.84 37.93 27.04 37.93 25.24 37.93 C 25.24 35.31 25.25 32.69 25.17 30.07 M 26.95 29.08 C 27.00 31.43 27.01 33.78 27.01 36.13 C 27.46 36.13 28.37 36.13 28.83 36.13 C 28.83 33.78 28.83 31.42 28.82 29.06 C 29.32 28.54 30.33 27.49 30.83 26.96 C 30.61 24.99 29.26 22.74 26.95 23.63 C 24.37 24.65 25.15 27.74 26.95 29.08 Z" />
</g>
</svg>
