<?xml version="1.0" encoding="UTF-8" ?>
<!DOCTYPE svg PUBLIC "-//W3C//DTD SVG 1.1//EN" "http://www.w3.org/Graphics/SVG/1.1/DTD/svg11.dtd">
<svg width="588pt" height="435pt" viewBox="0 0 588 435" version="1.1" xmlns="http://www.w3.org/2000/svg">
<g id="#f0f2f6ff">
<path fill="#f0f2f6" opacity="1.00" d=" M 0.00 64.43 C 54.03 42.91 108.10 21.46 162.16 0.01 C 168.63 16.22 175.03 32.46 181.52 48.66 C 147.38 62.31 113.16 75.80 79.00 89.43 C 86.24 107.60 93.45 125.78 100.69 143.96 C 132.91 131.17 165.12 118.37 197.33 105.58 C 203.78 121.66 210.15 137.78 216.55 153.88 C 184.34 166.68 152.12 179.48 119.91 192.27 C 128.13 213.06 136.41 233.84 144.68 254.62 C 180.67 240.33 216.65 226.02 252.65 211.75 C 259.10 227.98 265.55 244.21 272.00 260.44 C 216.14 282.63 160.27 304.80 104.41 327.01 C 69.56 239.54 34.92 151.99 0.00 64.55 L 0.00 64.43 Z" />
<path fill="#f0f2f6" opacity="1.00" d=" M 435.84 132.87 C 450.99 129.17 466.60 126.30 482.25 127.27 C 484.35 145.05 486.58 162.81 488.74 180.59 C 467.31 179.77 446.07 184.61 426.14 192.22 C 410.59 197.93 395.72 206.19 383.90 217.93 C 372.01 229.39 363.65 244.57 360.89 260.89 C 357.46 280.39 361.63 300.47 369.30 318.48 C 376.17 334.67 386.39 349.81 400.47 360.57 C 414.17 371.37 431.61 377.15 449.02 377.09 C 465.55 377.20 481.71 372.33 496.52 365.27 C 503.00 362.11 509.65 358.85 514.87 353.77 C 507.47 335.14 500.07 316.51 492.67 297.88 C 478.93 303.30 465.22 308.80 451.48 314.23 C 445.24 298.52 438.98 282.81 432.77 267.09 C 465.89 253.91 499.02 240.73 532.15 227.57 C 550.77 274.46 569.43 321.34 587.99 368.25 C 562.16 389.72 533.18 407.67 501.85 419.91 C 479.78 428.39 456.50 434.44 432.76 435.00 L 426.29 435.00 C 398.25 434.30 370.40 424.14 348.99 405.92 C 328.08 388.43 313.28 364.52 304.14 339.01 C 293.75 310.73 290.52 279.27 298.37 249.94 C 305.61 221.90 322.66 197.00 344.53 178.27 C 370.58 155.81 402.74 141.44 435.84 132.87 Z" />
</g>
</svg>
