<?xml version="1.0" encoding="UTF-8" ?>
<!DOCTYPE svg PUBLIC "-//W3C//DTD SVG 1.1//EN" "http://www.w3.org/Graphics/SVG/1.1/DTD/svg11.dtd">
<svg width="62pt" height="54pt" viewBox="0 0 62 54" version="1.1" xmlns="http://www.w3.org/2000/svg">
<g id="#0055b4ff">
<path fill="#0055b4" opacity="1.00" d=" M 37.30 0.00 L 38.74 0.00 C 43.53 3.13 48.83 5.38 53.98 7.85 C 53.72 8.35 53.22 9.35 52.97 9.86 C 47.65 6.95 41.80 4.95 36.93 1.28 C 37.02 0.96 37.21 0.32 37.30 0.00 Z" />
<path fill="#0055b4" opacity="1.00" d=" M 0.00 16.37 C 10.20 10.94 20.68 6.04 31.00 0.84 C 41.35 5.92 51.63 11.13 62.00 16.18 L 62.00 17.34 C 60.59 18.19 59.15 18.97 57.71 19.76 C 57.71 24.66 57.64 29.56 57.80 34.45 C 59.57 36.23 60.02 38.51 59.27 40.87 C 59.91 42.71 60.56 44.55 61.20 46.39 C 58.19 46.58 55.17 46.60 52.16 46.43 C 52.76 44.59 53.37 42.76 53.96 40.91 C 53.37 38.52 53.81 36.23 55.52 34.42 C 55.63 29.85 55.58 25.28 55.58 20.71 C 53.80 21.59 52.02 22.48 50.24 23.36 C 50.16 28.89 50.39 34.44 50.18 39.97 C 50.23 44.08 46.23 46.50 42.84 47.78 C 35.07 50.49 26.27 50.47 18.56 47.54 C 15.41 46.25 11.79 43.89 11.83 40.06 C 11.60 34.49 11.85 28.92 11.76 23.35 C 7.83 21.42 3.90 19.47 0.00 17.48 L 0.00 16.37 M 3.61 16.82 C 12.64 21.58 21.88 25.94 31.00 30.54 C 38.29 26.92 45.58 23.30 52.88 19.68 C 47.38 19.15 41.89 18.55 36.38 18.09 C 33.32 20.53 27.41 21.22 25.54 17.05 C 26.88 12.44 33.56 13.06 36.49 15.86 C 41.28 16.46 46.10 16.84 50.90 17.37 C 53.43 17.60 56.12 18.24 58.47 16.94 C 49.40 12.20 40.15 7.80 31.00 3.20 C 21.87 7.74 12.72 12.24 3.61 16.82 M 27.56 16.31 C 29.17 18.54 32.79 18.45 34.49 16.37 C 32.20 15.87 29.86 15.85 27.56 16.31 M 13.89 24.42 C 14.12 28.47 13.28 32.72 14.42 36.65 C 18.28 41.50 25.22 42.10 30.99 42.34 C 36.78 42.10 43.76 41.50 47.61 36.60 C 48.69 32.68 47.89 28.46 48.11 24.42 C 42.40 27.24 36.72 30.10 31.00 32.90 C 25.28 30.10 19.60 27.24 13.89 24.42 M 55.58 37.18 C 54.43 38.56 56.73 40.54 57.77 38.94 C 58.88 37.58 56.62 35.57 55.58 37.18 M 13.46 39.47 C 14.13 41.61 15.30 43.65 17.42 44.63 C 23.68 47.95 31.18 48.16 38.03 46.95 C 42.32 46.07 47.45 44.29 48.54 39.48 C 38.20 46.21 23.79 46.22 13.46 39.47 M 56.62 40.77 C 56.07 41.99 55.54 43.22 55.00 44.44 C 55.83 44.46 57.48 44.49 58.31 44.50 C 57.75 43.26 57.20 42.01 56.62 40.77 Z" />
<path fill="#0055b4" opacity="1.00" d=" M 56.16 9.09 C 57.90 8.50 59.32 11.53 57.17 11.89 C 55.38 12.52 54.12 9.57 56.16 9.09 Z" />
<path fill="#0055b4" opacity="1.00" d=" M 11.25 47.37 C 12.35 45.43 15.54 48.32 13.73 49.81 C 12.59 49.40 11.16 48.85 11.25 47.37 Z" />
</g>
<g id="#0050aaf1">
<path fill="#0050aa" opacity="0.95" d=" M 14.94 49.62 C 18.99 49.91 22.85 51.32 26.89 51.69 C 30.72 52.08 34.56 51.70 38.38 51.38 L 38.65 53.47 C 37.25 53.66 35.83 53.84 34.42 54.00 L 26.73 54.00 C 22.64 53.22 17.79 53.12 14.94 49.62 Z" />
</g>
</svg>
