<?xml version="1.0" encoding="UTF-8" ?>
<!DOCTYPE svg PUBLIC "-//W3C//DTD SVG 1.1//EN" "http://www.w3.org/Graphics/SVG/1.1/DTD/svg11.dtd">
<svg width="55pt" height="56pt" viewBox="0 0 55 56" version="1.1" xmlns="http://www.w3.org/2000/svg">
<g id="#9b3dcfff">
<path fill="#9b3dcf" opacity="1.00" d=" M 12.83 0.00 L 15.12 0.00 C 16.32 1.09 17.34 2.36 18.29 3.67 C 23.65 3.80 29.00 3.70 34.36 3.75 C 34.49 5.29 34.52 6.84 34.59 8.39 C 35.48 8.41 37.26 8.43 38.15 8.45 C 38.25 11.53 38.22 14.62 38.25 17.70 C 41.03 17.77 43.81 17.71 46.59 17.83 C 46.62 19.07 46.65 20.31 46.67 21.54 C 50.82 23.28 54.37 26.64 55.00 31.29 L 55.00 34.33 C 54.19 38.84 50.74 42.10 46.64 43.78 C 46.29 47.82 47.77 52.47 45.22 56.00 L 0.00 56.00 L 0.00 17.82 C 2.49 17.75 4.99 17.74 7.48 17.71 C 7.47 13.12 7.45 8.53 7.52 3.94 C 8.08 3.84 9.20 3.65 9.76 3.56 C 10.70 2.31 11.71 1.09 12.83 0.00 M 11.62 3.61 C 13.20 3.65 14.78 3.65 16.36 3.60 C 15.63 2.89 14.84 2.26 13.99 1.70 C 13.14 2.26 12.35 2.89 11.62 3.61 M 9.35 5.60 C 9.35 9.64 9.35 13.69 9.35 17.73 C 12.88 17.73 16.42 17.73 19.95 17.75 C 21.06 18.90 22.30 19.91 23.41 21.06 C 24.53 19.93 25.65 18.81 26.79 17.69 C 28.74 17.72 30.69 17.73 32.64 17.75 C 32.65 13.69 32.67 9.63 32.61 5.58 C 27.69 5.61 22.78 5.60 17.86 5.60 C 17.71 7.74 17.99 11.06 15.01 11.28 C 12.52 11.20 11.44 8.55 12.98 6.73 C 13.52 7.54 14.61 9.16 15.16 9.97 C 15.50 8.52 15.94 7.10 16.04 5.61 C 13.81 5.60 11.58 5.60 9.35 5.60 M 34.53 10.24 C 34.53 12.75 34.53 15.27 34.54 17.78 C 35.00 17.76 35.91 17.71 36.36 17.69 C 36.35 15.22 36.35 12.76 36.36 10.29 C 35.90 10.28 34.99 10.25 34.53 10.24 M 1.88 19.60 C 1.88 29.87 1.88 40.13 1.88 50.40 C 7.55 50.46 13.23 50.31 18.90 50.43 C 20.42 50.40 21.31 51.95 22.49 52.65 C 22.33 42.71 22.44 32.77 22.42 22.83 C 21.34 21.75 20.26 20.66 19.17 19.59 C 13.40 19.61 7.64 19.59 1.88 19.60 M 24.26 24.02 C 24.13 33.57 24.36 43.13 24.16 52.69 C 25.35 51.88 26.28 50.30 27.90 50.43 C 32.30 50.30 36.70 50.45 41.10 50.40 C 41.04 48.12 41.05 45.83 40.95 43.56 C 35.30 41.89 31.39 35.77 33.00 29.95 C 34.17 24.58 39.54 21.27 44.83 21.27 L 44.73 19.59 C 39.10 19.69 33.46 19.44 27.84 19.68 C 26.26 20.54 24.24 22.00 24.26 24.02 M 39.34 24.51 C 33.05 27.61 33.01 37.63 39.28 40.78 C 44.96 44.36 53.23 39.70 53.15 32.99 C 53.72 26.06 45.28 20.83 39.34 24.51 M 42.86 43.55 C 43.21 45.73 41.81 49.08 44.58 50.03 C 44.30 47.86 46.25 43.71 42.86 43.55 M 43.15 51.33 C 41.85 52.26 43.06 55.16 44.61 53.89 C 45.93 52.95 44.69 50.15 43.15 51.33 M 2.23 52.36 C 2.06 52.79 1.72 53.66 1.55 54.10 C 8.09 54.13 14.63 54.22 21.17 54.04 C 20.18 53.45 19.41 52.16 18.10 52.30 C 12.81 52.25 7.51 52.15 2.23 52.36 M 27.31 52.49 C 26.91 52.88 26.12 53.65 25.72 54.04 C 30.86 54.22 36.01 54.10 41.16 54.13 C 41.12 53.67 41.05 52.73 41.01 52.27 C 36.45 52.41 31.84 51.95 27.31 52.49 Z" />
<path fill="#9b3dcf" opacity="1.00" d=" M 3.70 5.63 C 4.16 5.61 5.08 5.57 5.54 5.56 C 5.56 6.03 5.59 6.99 5.61 7.47 C 5.13 7.46 4.18 7.46 3.71 7.46 C 3.70 7.00 3.70 6.09 3.70 5.63 Z" />
<path fill="#9b3dcf" opacity="1.00" d=" M 3.70 9.38 C 4.17 9.35 5.10 9.30 5.57 9.27 C 5.58 11.49 5.58 13.70 5.58 15.92 C 5.11 15.89 4.17 15.84 3.70 15.82 C 3.71 13.67 3.71 11.52 3.70 9.38 Z" />
<path fill="#9b3dcf" opacity="1.00" d=" M 19.43 9.31 C 20.50 7.71 22.76 9.78 21.60 11.12 C 20.49 12.61 18.25 10.69 19.43 9.31 Z" />
<path fill="#9b3dcf" opacity="1.00" d=" M 23.23 9.35 C 25.45 9.34 27.67 9.34 29.88 9.35 C 29.85 9.81 29.80 10.74 29.77 11.21 C 27.62 11.20 25.48 11.20 23.33 11.20 C 23.31 10.74 23.26 9.81 23.23 9.35 Z" />
<path fill="#9b3dcf" opacity="1.00" d=" M 4.82 22.40 C 9.72 22.42 14.62 22.34 19.52 22.48 C 19.61 25.54 19.61 28.60 19.51 31.65 C 14.62 31.79 9.72 31.71 4.83 31.74 C 4.58 28.63 4.58 25.51 4.82 22.40 M 6.53 24.27 C 6.53 26.13 6.53 27.99 6.52 29.86 C 10.25 29.87 13.98 29.87 17.71 29.86 C 17.71 28.00 17.71 26.13 17.71 24.27 C 13.98 24.27 10.25 24.26 6.53 24.27 Z" />
<path fill="#9b3dcf" opacity="1.00" d=" M 41.31 25.47 C 46.50 23.35 52.56 28.48 51.36 33.95 C 50.67 39.72 42.79 42.42 38.69 38.30 C 34.43 34.76 36.00 27.07 41.31 25.47 M 41.38 27.42 C 37.43 29.09 36.93 35.16 40.57 37.44 C 44.01 40.05 49.55 37.35 49.60 33.05 C 50.08 28.84 45.14 25.46 41.38 27.42 Z" />
<path fill="#9b3dcf" opacity="1.00" d=" M 6.54 34.53 C 7.01 34.53 7.94 34.54 8.41 34.54 C 8.41 35.01 8.41 35.93 8.41 36.40 C 7.94 36.40 7.00 36.40 6.53 36.40 C 6.53 35.93 6.54 35.00 6.54 34.53 Z" />
<path fill="#9b3dcf" opacity="1.00" d=" M 27.05 34.52 C 28.30 34.53 29.55 34.54 30.79 34.56 C 30.78 35.01 30.76 35.93 30.74 36.38 C 29.54 36.40 28.35 36.42 27.15 36.45 C 27.12 35.96 27.07 35.00 27.05 34.52 Z" />
<path fill="#9b3dcf" opacity="1.00" d=" M 4.50 38.51 C 9.57 37.97 14.69 38.38 19.78 38.31 C 19.67 38.77 19.46 39.71 19.35 40.18 C 15.20 40.07 11.06 40.20 6.91 40.13 C 5.96 40.16 3.83 39.97 4.50 38.51 Z" />
<path fill="#9b3dcf" opacity="1.00" d=" M 26.60 38.35 C 28.65 38.29 30.70 38.27 32.75 38.30 C 32.71 38.77 32.62 39.71 32.57 40.18 C 30.53 39.79 27.12 41.29 26.60 38.35 Z" />
<path fill="#9b3dcf" opacity="1.00" d=" M 4.43 43.76 C 4.51 43.32 4.66 42.44 4.74 42.00 C 9.24 42.06 13.73 41.88 18.23 42.05 C 19.22 42.07 19.85 42.61 20.10 43.68 C 14.89 44.01 9.66 43.90 4.43 43.76 Z" />
<path fill="#9b3dcf" opacity="1.00" d=" M 27.00 42.04 C 29.95 42.55 34.29 40.53 36.13 43.59 C 33.12 43.93 30.09 43.89 27.06 43.86 C 27.05 43.41 27.02 42.50 27.00 42.04 Z" />
<path fill="#9b3dcf" opacity="1.00" d=" M 48.58 44.77 C 50.07 44.19 51.63 42.72 53.11 44.22 C 52.21 44.88 51.31 45.53 50.39 46.16 C 50.36 47.57 50.35 48.97 50.34 50.38 C 49.88 50.39 48.98 50.42 48.52 50.43 C 48.52 48.54 48.57 46.66 48.58 44.77 Z" />
<path fill="#9b3dcf" opacity="1.00" d=" M 5.08 45.94 C 8.50 45.52 12.00 45.65 15.44 45.85 C 15.68 46.25 16.18 47.06 16.43 47.46 C 12.32 47.67 8.20 47.70 4.10 47.41 L 5.08 45.94 Z" />
<path fill="#9b3dcf" opacity="1.00" d=" M 27.48 45.85 C 30.82 45.63 34.20 45.58 37.53 45.87 C 37.88 46.23 38.59 46.95 38.94 47.31 C 34.83 47.76 30.69 47.65 26.57 47.49 C 26.80 47.08 27.26 46.26 27.48 45.85 Z" />
<path fill="#9b3dcf" opacity="1.00" d=" M 48.32 52.30 C 49.24 50.58 51.60 52.51 50.60 53.93 C 49.65 55.59 47.26 53.75 48.32 52.30 Z" />
</g>
<g id="#8e37beea">
<path fill="#8e37be" opacity="0.92" d=" M 12.05 13.03 C 18.00 12.98 23.94 12.97 29.89 13.03 C 29.88 13.52 29.87 14.49 29.86 14.98 C 23.94 15.02 18.02 15.01 12.09 14.99 C 12.08 14.50 12.06 13.52 12.05 13.03 Z" />
</g>
<g id="#973bcaf8">
<path fill="#973bca" opacity="0.97" d=" M 9.63 34.68 C 12.96 34.47 16.29 34.51 19.62 34.53 L 19.58 36.40 C 16.63 36.39 13.67 36.56 10.73 36.30 C 10.46 35.90 9.91 35.09 9.63 34.68 Z" />
</g>
</svg>
