<?xml version="1.0" encoding="UTF-8" ?>
<!DOCTYPE svg PUBLIC "-//W3C//DTD SVG 1.1//EN" "http://www.w3.org/Graphics/SVG/1.1/DTD/svg11.dtd">
<svg width="49pt" height="54pt" viewBox="0 0 49 54" version="1.1" xmlns="http://www.w3.org/2000/svg">
<g id="#0066ffff">
<path fill="#0066ff" opacity="1.00" d=" M 10.43 0.00 L 12.44 0.00 C 13.42 1.14 14.30 2.34 15.17 3.56 C 24.02 3.70 32.87 3.47 41.72 3.70 C 41.73 4.57 41.76 6.31 41.78 7.18 C 42.65 7.20 44.41 7.24 45.28 7.26 C 45.41 22.84 45.37 38.42 45.30 54.00 L 9.28 54.00 C 9.16 52.81 9.04 51.63 8.92 50.44 C 5.83 50.28 1.98 51.17 0.00 48.12 L 0.00 43.34 C 1.82 43.26 3.65 43.20 5.47 43.14 C 5.57 30.46 5.28 17.76 5.59 5.09 C 6.77 3.09 8.82 1.67 10.43 0.00 M 10.09 2.06 C 8.83 3.52 11.56 5.02 12.56 3.70 C 13.76 2.22 11.12 0.79 10.09 2.06 M 7.24 5.39 C 7.23 17.99 7.24 30.60 7.23 43.20 C 16.84 43.21 26.45 43.18 36.07 43.22 C 35.98 45.43 36.42 50.51 39.68 47.88 C 40.29 33.75 39.77 19.55 39.94 5.39 C 31.53 5.40 23.12 5.40 14.71 5.39 C 14.32 7.00 14.94 9.29 13.27 10.34 C 11.68 11.64 8.91 10.12 9.15 8.09 C 8.90 5.24 11.79 8.59 12.00 9.39 C 12.49 8.12 12.71 6.78 12.93 5.44 C 11.03 5.41 9.14 5.40 7.24 5.39 M 41.77 8.96 C 41.74 21.32 41.81 33.70 41.74 46.06 C 42.01 48.25 40.39 50.56 38.03 50.35 C 29.14 50.57 20.24 50.20 11.35 50.49 C 11.13 50.90 10.67 51.72 10.45 52.14 C 21.47 52.29 32.49 52.14 43.50 52.22 C 43.58 37.84 43.48 23.46 43.55 9.08 C 43.11 9.05 42.21 8.99 41.77 8.96 M 1.55 45.04 C 1.93 46.44 1.88 48.89 3.99 48.55 C 14.22 48.72 24.46 48.48 34.69 48.66 C 34.61 47.45 34.52 46.24 34.43 45.03 C 23.47 44.99 12.51 44.96 1.55 45.04 Z" />
<path fill="#0066ff" opacity="1.00" d=" M 1.39 9.96 C 1.37 8.17 4.37 8.20 4.30 9.99 C 4.28 11.77 1.31 11.77 1.39 9.96 Z" />
<path fill="#0066ff" opacity="1.00" d=" M 2.03 13.11 L 3.37 11.92 C 3.81 16.25 3.77 20.62 3.42 24.95 L 2.02 23.86 C 1.67 20.30 1.65 16.66 2.03 13.11 Z" />
<path fill="#0066ff" opacity="1.00" d=" M 9.88 13.53 C 18.96 13.53 28.04 13.53 37.12 13.53 L 37.12 15.33 C 28.04 15.33 18.96 15.33 9.88 15.33 L 9.88 13.53 Z" />
<path fill="#0066ff" opacity="1.00" d=" M 13.58 20.58 C 13.99 20.64 14.80 20.76 15.21 20.82 C 15.27 21.23 15.39 22.04 15.44 22.45 C 14.93 22.48 13.91 22.53 13.40 22.56 C 13.44 22.07 13.54 21.08 13.58 20.58 Z" />
<path fill="#0066ff" opacity="1.00" d=" M 17.06 20.74 C 23.90 20.76 30.73 20.65 37.57 20.81 C 37.33 21.22 36.86 22.04 36.62 22.45 C 30.15 22.70 23.66 22.43 17.18 22.55 C 17.15 22.10 17.09 21.20 17.06 20.74 Z" />
<path fill="#0066ff" opacity="1.00" d=" M 9.89 24.33 C 18.82 24.42 27.77 24.18 36.70 24.43 C 36.90 24.84 37.31 25.67 37.51 26.09 C 28.30 26.19 19.09 26.11 9.88 26.13 C 9.88 25.68 9.88 24.78 9.89 24.33 Z" />
<path fill="#0066ff" opacity="1.00" d=" M 9.89 27.94 C 16.27 27.93 22.64 27.95 29.02 27.91 C 30.86 28.00 33.04 27.59 34.39 29.26 C 26.28 30.30 18.04 29.47 9.88 29.73 C 9.89 29.29 9.89 28.39 9.89 27.94 Z" />
<path fill="#0066ff" opacity="1.00" d=" M 13.44 31.33 C 13.96 31.31 15.00 31.27 15.52 31.26 C 15.54 31.80 15.59 32.90 15.62 33.44 C 15.09 33.47 14.04 33.52 13.51 33.54 C 13.49 32.99 13.46 31.88 13.44 31.33 Z" />
<path fill="#0066ff" opacity="1.00" d=" M 9.96 38.74 C 17.81 38.72 25.66 38.75 33.51 38.72 C 33.55 39.17 33.63 40.07 33.67 40.52 C 25.80 40.56 17.93 40.50 10.06 40.55 C 10.04 40.10 9.99 39.19 9.96 38.74 Z" />
<path fill="#0066ff" opacity="1.00" d=" M 47.17 38.81 C 47.63 38.77 48.54 38.68 49.00 38.64 L 49.00 50.42 C 48.54 50.41 47.63 50.38 47.17 50.37 C 47.18 46.52 47.18 42.66 47.17 38.81 Z" />
</g>
<g id="#005ce6e6">
<path fill="#005ce6" opacity="0.90" d=" M 9.88 17.04 C 17.62 17.16 25.38 16.80 33.10 17.20 L 33.88 17.89 L 33.24 18.89 C 25.46 19.18 17.66 18.91 9.88 19.00 C 9.88 18.51 9.88 17.53 9.88 17.04 Z" />
<path fill="#005ce6" opacity="0.90" d=" M 10.00 35.04 C 19.06 35.04 28.12 35.04 37.17 35.04 C 37.18 35.53 37.18 36.51 37.18 37.00 C 28.12 37.00 19.06 37.00 10.00 37.00 C 10.00 36.51 10.00 35.53 10.00 35.04 Z" />
</g>
<g id="#0065fcfc">
<path fill="#0065fc" opacity="1.00" d=" M 16.73 31.65 C 23.54 31.40 30.36 31.58 37.18 31.53 L 37.17 33.34 C 30.65 33.23 24.12 33.55 17.61 33.20 L 16.73 31.65 Z" />
</g>
<g id="#0054d1d1">
<path fill="#0054d1" opacity="0.82" d=" M 47.13 54.00 C 46.69 52.31 47.31 51.69 49.00 52.14 L 49.00 54.00 L 47.13 54.00 Z" />
</g>
</svg>
