<?xml version="1.0" encoding="UTF-8" ?>
<!DOCTYPE svg PUBLIC "-//W3C//DTD SVG 1.1//EN" "http://www.w3.org/Graphics/SVG/1.1/DTD/svg11.dtd">
<svg width="53pt" height="54pt" viewBox="0 0 53 54" version="1.1" xmlns="http://www.w3.org/2000/svg">
<g id="#00a189ff">
<path fill="#00a189" opacity="1.00" d=" M 8.53 0.00 L 22.80 0.00 C 22.78 0.45 22.74 1.36 22.72 1.82 C 17.89 1.95 12.99 1.34 8.22 2.18 C 4.98 3.30 5.51 7.25 5.23 9.96 L 3.43 9.89 C 3.22 5.90 4.12 1.28 8.53 0.00 Z" />
<path fill="#00a189" opacity="1.00" d=" M 23.88 0.00 L 26.63 0.00 C 27.10 1.56 26.52 2.41 24.89 2.57 C 24.64 1.93 24.14 0.64 23.88 0.00 Z" />
<path fill="#00a189" opacity="1.00" d=" M 7.34 7.06 C 7.22 4.59 9.78 3.38 11.92 3.62 C 23.29 3.66 34.68 3.42 46.04 3.74 C 50.02 4.07 49.12 8.87 49.27 11.66 C 47.43 11.70 45.60 11.73 43.76 11.76 C 43.76 20.23 43.76 28.69 43.76 37.16 C 46.67 36.96 49.58 36.79 52.50 36.63 C 52.68 38.02 52.85 39.42 53.00 40.81 L 53.00 43.66 C 49.93 43.95 46.86 44.19 43.78 44.41 C 43.76 46.37 43.75 48.34 43.72 50.31 C 31.58 50.46 19.44 50.45 7.30 50.32 C 7.28 49.60 7.24 48.18 7.21 47.47 C 4.76 46.55 2.37 45.50 0.00 44.38 L 0.00 43.32 C 2.16 41.56 4.62 40.23 7.22 39.23 C 7.35 28.51 7.05 17.77 7.34 7.06 M 9.16 7.04 C 8.91 17.88 9.14 28.73 9.06 39.58 C 20.02 38.81 30.99 38.08 41.95 37.29 C 42.04 26.65 41.71 16.01 42.15 5.38 C 32.09 5.44 22.02 5.36 11.96 5.40 C 10.93 5.39 8.94 5.52 9.16 7.04 M 43.58 9.92 C 44.58 9.92 46.59 9.91 47.60 9.90 C 47.06 8.47 48.04 5.85 46.00 5.46 C 43.30 4.89 43.97 8.31 43.58 9.92 M 48.17 38.64 C 48.23 39.84 48.29 41.05 48.35 42.26 C 49.04 42.22 50.43 42.12 51.12 42.08 C 51.03 40.88 50.94 39.69 50.85 38.50 C 50.18 38.53 48.84 38.60 48.17 38.64 M 6.22 41.58 C 6.33 42.78 6.44 43.98 6.54 45.18 C 18.66 44.32 30.79 43.49 42.91 42.66 C 42.83 41.46 42.76 40.26 42.68 39.07 C 30.52 39.89 18.37 40.75 6.22 41.58 M 44.50 38.56 C 44.57 39.87 44.65 41.18 44.73 42.49 C 45.21 42.47 46.18 42.44 46.66 42.43 C 46.50 40.78 46.59 38.80 44.50 38.56 M 3.30 42.77 C 2.78 44.14 3.23 44.66 4.64 44.32 C 5.14 42.91 4.69 42.39 3.30 42.77 M 9.22 46.74 C 9.15 47.20 9.02 48.12 8.96 48.58 C 19.95 48.63 30.94 48.58 41.93 48.61 C 41.94 47.24 41.94 45.88 41.95 44.52 C 31.04 45.24 20.13 46.07 9.22 46.74 Z" />
<path fill="#00a189" opacity="1.00" d=" M 11.82 13.54 C 20.94 13.53 30.06 13.53 39.18 13.54 L 39.17 15.33 C 30.06 15.33 20.94 15.33 11.82 15.33 L 11.82 13.54 Z" />
<path fill="#00a189" opacity="1.00" d=" M 13.53 20.55 C 14.06 20.56 15.14 20.58 15.67 20.59 C 15.66 21.13 15.62 22.21 15.61 22.74 C 15.08 22.73 14.02 22.71 13.49 22.70 C 13.50 22.16 13.52 21.09 13.53 20.55 Z" />
<path fill="#00a189" opacity="1.00" d=" M 17.21 22.51 C 17.25 22.07 17.34 21.17 17.38 20.73 C 24.76 20.78 32.14 20.67 39.53 20.79 C 39.70 23.19 37.35 22.30 36.04 22.55 C 29.77 22.53 23.49 22.54 17.21 22.51 Z" />
<path fill="#00a189" opacity="1.00" d=" M 11.41 26.07 C 11.72 23.58 14.27 24.52 15.93 24.30 C 23.50 24.49 31.09 24.09 38.64 24.48 C 38.87 24.88 39.34 25.68 39.57 26.08 C 30.18 26.16 20.80 26.18 11.41 26.07 Z" />
<path fill="#00a189" opacity="1.00" d=" M 11.45 27.98 C 17.94 27.88 24.44 27.97 30.94 27.91 C 32.80 28.07 35.13 27.46 36.37 29.34 C 28.35 30.09 20.25 29.72 12.21 29.61 C 12.02 29.20 11.64 28.39 11.45 27.98 Z" />
<path fill="#00a189" opacity="1.00" d=" M 11.43 35.08 C 12.09 31.97 15.96 33.82 18.17 33.31 C 18.17 33.76 18.18 34.68 18.18 35.13 C 15.93 35.14 13.68 35.13 11.43 35.08 Z" />
<path fill="#00a189" opacity="1.00" d=" M 20.09 33.39 C 21.72 32.88 22.27 33.44 21.74 35.06 C 20.12 35.57 19.57 35.01 20.09 33.39 Z" />
<path fill="#00a189" opacity="1.00" d=" M 29.13 33.29 C 31.52 33.31 33.91 33.37 36.29 33.65 C 34.68 36.05 31.51 34.85 29.12 35.17 C 29.12 34.70 29.13 33.76 29.13 33.29 Z" />
<path fill="#00a189" opacity="1.00" d=" M 37.43 33.39 C 39.07 32.88 39.61 33.43 39.08 35.05 C 37.45 35.57 36.90 35.02 37.43 33.39 Z" />
<path fill="#00a189" opacity="1.00" d=" M 46.00 47.74 L 47.73 47.80 C 47.41 50.06 47.16 52.48 45.22 54.00 L 33.66 54.00 C 33.69 53.55 33.74 52.64 33.76 52.19 C 37.46 52.17 41.19 52.45 44.86 51.94 C 45.39 50.58 45.64 49.15 46.00 47.74 Z" />
</g>
<g id="#00917ae6">
<path fill="#00917a" opacity="0.90" d=" M 11.83 17.04 C 19.73 17.04 27.62 17.04 35.52 17.04 C 35.53 17.53 35.55 18.51 35.55 19.00 C 27.64 19.00 19.73 19.00 11.82 19.00 C 11.82 18.51 11.82 17.53 11.83 17.04 Z" />
</g>
<g id="#008470d1">
<path fill="#008470" opacity="0.82" d=" M 30.07 54.00 C 28.56 51.38 33.38 51.38 31.89 54.00 L 30.07 54.00 Z" />
</g>
</svg>
