<?xml version="1.0" encoding="UTF-8" ?>
<!DOCTYPE svg PUBLIC "-//W3C//DTD SVG 1.1//EN" "http://www.w3.org/Graphics/SVG/1.1/DTD/svg11.dtd">
<svg width="71pt" height="66pt" viewBox="0 0 71 66" version="1.1" xmlns="http://www.w3.org/2000/svg">
<path fill="#f0f2f6" stroke="#f0f2f6" stroke-width="0.09375" opacity="1.00" d=" M 21.19 0.00 L 22.44 0.00 C 24.64 3.10 26.51 6.41 28.58 9.60 C 22.98 11.96 18.10 16.36 16.07 22.18 C 14.28 27.00 13.76 32.17 13.54 37.27 C 17.83 37.28 22.13 37.24 26.42 37.29 C 26.40 46.86 26.41 56.43 26.41 66.00 L 0.00 66.00 L 0.00 41.18 C 0.14 35.35 0.51 29.49 1.82 23.80 C 4.17 13.24 12.32 4.51 22.16 0.35 L 21.19 0.00 Z" />
<path fill="#f0f2f6" stroke="#f0f2f6" stroke-width="0.09375" opacity="1.00" d=" M 44.00 24.90 C 46.03 13.62 54.72 4.53 64.98 0.01 C 66.93 3.14 68.92 6.23 70.79 9.40 L 71.00 8.12 L 71.00 9.53 C 66.77 11.54 62.75 14.32 60.31 18.42 C 56.94 24.07 56.26 30.82 55.96 37.26 C 60.24 37.28 64.53 37.26 68.81 37.27 C 68.83 46.85 68.82 56.42 68.82 66.00 L 42.41 66.00 C 42.76 52.31 41.39 38.44 44.00 24.90 Z" />
</svg>
